<svg xmlns="http://www.w3.org/2000/svg" viewBox="0 0 820 240" width="820" height="240">
  <defs>
    <style>
      @keyframes pulse{0%,100%{opacity:1}50%{opacity:0.3}}
      .cur{animation:pulse 1.1s ease-in-out infinite}
      .mono{font-family:'Courier New',Courier,monospace}
    </style>
    <clipPath id="clip"><rect width="820" height="240" rx="14"/></clipPath>
    <linearGradient id="bg1" x1="0" y1="0" x2="0" y2="1">
      <stop offset="0%" stop-color="#388bfd"/>
      <stop offset="100%" stop-color="#1f6feb"/>
    </linearGradient>
    <linearGradient id="bg2" x1="0" y1="0" x2="0" y2="1">
      <stop offset="0%" stop-color="#3fb950"/>
      <stop offset="100%" stop-color="#238636"/>
    </linearGradient>
  </defs>

  <rect width="820" height="240" rx="14" fill="#0d1117"/>
  <pattern id="dots" x="0" y="0" width="24" height="24" patternUnits="userSpaceOnUse">
    <circle cx="1" cy="1" r="0.7" fill="#161b22"/>
  </pattern>
  <rect width="820" height="240" fill="url(#dots)" clip-path="url(#clip)"/>
  <rect x="0" y="0" width="3" height="240" fill="#388bfd" rx="2"/>

  <!-- LEFT: Info cards -->
  <rect x="16" y="16" width="230" height="72" rx="8" fill="#161b22" stroke="#30363d" stroke-width="0.8"/>
  <text x="28" y="36" class="mono" fill="#8b949e" font-size="9" letter-spacing="1">ENGINEER</text>
  <text x="28" y="56" class="mono" fill="#e6edf3" font-size="18" font-weight="bold">Varada Govind</text>
  <text x="28" y="72" class="mono" fill="#388bfd" font-size="10">@VaradaGovind · he/him</text>

  <rect x="16" y="96" width="110" height="60" rx="8" fill="#161b22" stroke="#30363d" stroke-width="0.8"/>
  <text x="28" y="114" class="mono" fill="#8b949e" font-size="9" letter-spacing="1">REPOS</text>
  <text x="28" y="140" class="mono" fill="#e6edf3" font-size="22" font-weight="bold">15</text>
  <text x="28" y="152" class="mono" fill="#6e7681" font-size="9">public</text>

  <rect x="134" y="96" width="112" height="60" rx="8" fill="#161b22" stroke="#30363d" stroke-width="0.8"/>
  <text x="146" y="114" class="mono" fill="#8b949e" font-size="9" letter-spacing="1">STARS</text>
  <text x="146" y="140" class="mono" fill="#f0883e" font-size="22" font-weight="bold">2</text>
  <text x="146" y="152" class="mono" fill="#6e7681" font-size="9">earned</text>

  <rect x="16" y="164" width="230" height="60" rx="8" fill="#161b22" stroke="#30363d" stroke-width="0.8"/>
  <text x="28" y="182" class="mono" fill="#8b949e" font-size="9" letter-spacing="1">WIP</text>
  <circle cx="28" cy="199" r="4" fill="#f0883e"/>
  <text x="38" y="202" class="mono" fill="#f0883e" font-size="11" font-weight="bold">OrionRV</text>
  <text x="96" y="202" class="mono" fill="#6e7681" font-size="10"> — 4-core RV32IM SoC</text>
  <text x="28" y="216" class="mono" fill="#6e7681" font-size="9">SystemVerilog · multicore · in progress</text>

  <!-- MIDDLE: Activity graph -->
  <rect x="260" y="16" width="270" height="208" rx="8" fill="#161b22" stroke="#30363d" stroke-width="0.8"/>
  <text x="272" y="36" class="mono" fill="#8b949e" font-size="9" letter-spacing="1">COMMIT ACTIVITY</text>
  <circle cx="400" cy="31" r="4" fill="#3fb950"/>
  <text x="408" y="35" class="mono" fill="#3fb950" font-size="9">7 this year</text>
  <text x="268" y="88" class="mono" fill="#484f58" font-size="8">hi</text>
  <text x="268" y="128" class="mono" fill="#484f58" font-size="8">md</text>
  <text x="268" y="165" class="mono" fill="#484f58" font-size="8">lo</text>
  <line x1="284" y1="165" x2="516" y2="165" stroke="#21262d" stroke-width="0.8"/>
  <rect x="288" width="13" y="161" height="4" rx="3" fill="url(#bg1)" opacity="0.9"/>
    <rect x="306" width="13" y="113" height="52" rx="3" fill="url(#bg1)" opacity="0.9"/>
    <rect x="324" width="13" y="95" height="70" rx="3" fill="url(#bg1)" opacity="0.9"/>
    
  <text x="289" y="178" class="mono" fill="#484f58" font-size="7.5">J</text>
    <text x="307" y="178" class="mono" fill="#484f58" font-size="7.5">F</text>
    <text x="325" y="178" class="mono" fill="#484f58" font-size="7.5">M</text>
    
  <line x1="272" y1="192" x2="522" y2="192" stroke="#21262d" stroke-width="0.8"/>
  <text x="280" y="207" class="mono" fill="#6e7681" font-size="9">streak</text>
  <text x="320" y="207" class="mono" fill="#388bfd" font-size="9" font-weight="bold">2 days</text>
  <text x="380" y="207" class="mono" fill="#6e7681" font-size="9">total</text>
  <text x="410" y="207" class="mono" fill="#e6edf3" font-size="9" font-weight="bold">7</text>
  <text x="450" y="207" class="mono" fill="#6e7681" font-size="9">updated 16 Mar 2026</text>

  <!-- RIGHT: Top projects -->
  <rect x="544" y="16" width="262" height="208" rx="8" fill="#161b22" stroke="#30363d" stroke-width="0.8"/>
  <text x="556" y="36" class="mono" fill="#8b949e" font-size="9" letter-spacing="1">TOP PROJECTS</text>
  <line x1="556" y1="44" x2="794" y2="44" stroke="#21262d" stroke-width="0.8"/>
  <text x="564" y="66" class="mono" fill="#f0883e" font-size="9">⬡</text>
  <text x="580" y="64" class="mono" fill="#e6edf3" font-size="10" font-weight="bold">OrionRV</text>
  <text x="580" y="76" class="mono" fill="#6e7681" font-size="9">4-core RV32IM SoC</text>
  <circle cx="790" cy="63" r="3.5" fill="#f0883e"/>
  <line x1="556" y1="86" x2="794" y2="86" stroke="#21262d" stroke-width="0.5"/>
  <text x="564" y="102" class="mono" fill="#388bfd" font-size="9">⚡</text>
  <text x="580" y="100" class="mono" fill="#e6edf3" font-size="10" font-weight="bold">rtl-riscv32</text>
  <text x="580" y="112" class="mono" fill="#6e7681" font-size="9">single-cycle RV32I</text>
  <circle cx="790" cy="101" r="3.5" fill="#3fb950"/>
  <line x1="556" y1="122" x2="794" y2="122" stroke="#21262d" stroke-width="0.5"/>
  <text x="564" y="138" class="mono" fill="#d2a8ff" font-size="9">⬟</text>
  <text x="580" y="136" class="mono" fill="#e6edf3" font-size="10" font-weight="bold">CMOS-Std-Cell-Lib</text>
  <text x="580" y="148" class="mono" fill="#6e7681" font-size="9">transistor-level primitives</text>
  <circle cx="790" cy="137" r="3.5" fill="#3fb950"/>
  <line x1="556" y1="158" x2="794" y2="158" stroke="#21262d" stroke-width="0.5"/>
  <text x="564" y="174" class="mono" fill="#7ee787" font-size="9">⇄</text>
  <text x="580" y="172" class="mono" fill="#e6edf3" font-size="10" font-weight="bold">rtl-spi-controller</text>
  <text x="580" y="184" class="mono" fill="#6e7681" font-size="9">full-duplex SPI master/slave</text>
  <circle cx="790" cy="173" r="3.5" fill="#3fb950"/>
  <line x1="556" y1="194" x2="794" y2="194" stroke="#21262d" stroke-width="0.5"/>
  <rect x="556" y="207" width="6" height="10" rx="1" fill="#388bfd" class="cur"/>
  <text x="566" y="216" class="mono" fill="#484f58" font-size="9">15 public repos · Verilog · SystemVerilog · C++</text>
</svg>